<?xml version="1.0" encoding="UTF-8" standalone="no"?>
<svg
   id="Layer_1"
   data-name="Layer 1"
   viewBox="0 0 25 25"
   version="1.1"
   sodipodi:docname="add.svg"
   xml:space="preserve"
   inkscape:version="1.4.2 (f4327f4, 2025-05-13)"
   xmlns:inkscape="http://www.inkscape.org/namespaces/inkscape"
   xmlns:sodipodi="http://sodipodi.sourceforge.net/DTD/sodipodi-0.dtd"
   xmlns="http://www.w3.org/2000/svg"
   xmlns:svg="http://www.w3.org/2000/svg"
   xmlns:rdf="http://www.w3.org/1999/02/22-rdf-syntax-ns#"
   xmlns:cc="http://creativecommons.org/ns#"
   xmlns:dc="http://purl.org/dc/elements/1.1/"><defs
     id="defs1" /><sodipodi:namedview
     id="namedview1"
     pagecolor="#ffffff"
     bordercolor="#000000"
     borderopacity="0.25"
     inkscape:showpageshadow="2"
     inkscape:pageopacity="0.0"
     inkscape:pagecheckerboard="0"
     inkscape:deskcolor="#d1d1d1"
     inkscape:zoom="16.14"
     inkscape:cx="7.7447336"
     inkscape:cy="11.05948"
     inkscape:window-width="1920"
     inkscape:window-height="1009"
     inkscape:window-x="-8"
     inkscape:window-y="-8"
     inkscape:window-maximized="1"
     inkscape:current-layer="layer1" /><title
     id="title1">Clipboard</title><g
     inkscape:groupmode="layer"
     id="layer1"
     inkscape:label="Layer 1"><path
       style="fill:#0e1d25;fill-opacity:1;stroke:none;stroke-width:0.0860818;stroke-opacity:1"
       d="m 11.725118,22.084326 c -0.160831,-0.103667 -0.375686,-0.294886 -0.477457,-0.42492 -0.180025,-0.23002 -0.185713,-0.333872 -0.209882,-3.832682 l -0.02484,-3.596255 H 7.4725073 c -2.3119886,0 -3.6764289,-0.03244 -3.9323722,-0.09347 -0.5098593,-0.121597 -0.970123,-0.590007 -1.0567127,-1.075425 -0.089983,-0.504459 0.2216231,-1.055541 0.745112,-1.317726 0.3875204,-0.194088 0.389058,-0.194161 4.0887669,-0.194161 H 11.018398 V 8.0576079 c 0,-3.3607393 0.0069,-3.5055582 0.183182,-3.8504678 0.46702,-0.9137113 1.747596,-0.9774313 2.359531,-0.1174045 0.199088,0.2798009 0.199319,0.2842873 0.199319,3.8700403 V 11.54969 h 3.696268 c 3.657473,0 3.700404,0.002 4.090222,0.188492 0.567292,0.27143 0.818716,0.662182 0.773066,1.201463 -0.0417,0.49258 -0.297407,0.886517 -0.716358,1.103599 -0.251516,0.130331 -0.671193,0.147937 -4.061848,0.170451 l -3.78135,0.02511 v 3.567304 c 0,3.450321 -0.006,3.576418 -0.181364,3.845236 -0.398467,0.610635 -1.264552,0.812906 -1.853946,0.432984 z"
       id="path3" /></g><metadata
     id="metadata3"><rdf:RDF><cc:Work
         rdf:about=""><dc:title>Clipboard</dc:title></cc:Work></rdf:RDF></metadata></svg>
