<?xml version="1.0" encoding="UTF-8" standalone="no"?>
<svg
   id="Layer_1"
   data-name="Layer 1"
   viewBox="0 0 25 25"
   version="1.1"
   sodipodi:docname="add_clipboard.svg"
   xml:space="preserve"
   inkscape:version="1.4.2 (f4327f4, 2025-05-13)"
   xmlns:inkscape="http://www.inkscape.org/namespaces/inkscape"
   xmlns:sodipodi="http://sodipodi.sourceforge.net/DTD/sodipodi-0.dtd"
   xmlns="http://www.w3.org/2000/svg"
   xmlns:svg="http://www.w3.org/2000/svg"
   xmlns:rdf="http://www.w3.org/1999/02/22-rdf-syntax-ns#"
   xmlns:cc="http://creativecommons.org/ns#"
   xmlns:dc="http://purl.org/dc/elements/1.1/"><defs
     id="defs1" /><sodipodi:namedview
     id="namedview1"
     pagecolor="#ffffff"
     bordercolor="#000000"
     borderopacity="0.25"
     inkscape:showpageshadow="2"
     inkscape:pageopacity="0.0"
     inkscape:pagecheckerboard="0"
     inkscape:deskcolor="#d1d1d1"
     inkscape:zoom="16.14"
     inkscape:cx="7.7447336"
     inkscape:cy="11.05948"
     inkscape:window-width="1920"
     inkscape:window-height="1009"
     inkscape:window-x="-8"
     inkscape:window-y="-8"
     inkscape:window-maximized="1"
     inkscape:current-layer="layer1" /><title
     id="title1">Clipboard</title><path
     id="Clipboard"
     d="M 20.063804,23.876487 H 4.5577778 A 1.0477046,1.1529557 0 0 1 3.5100732,22.723531 V 4.7374215 A 1.0477046,1.1529557 0 0 1 4.5577778,3.5844659 h 2.380385 A 1.2572454,1.3835468 0 0 1 8.1199734,2.6621013 H 10.215382 V 2.2009191 a 1.2572454,1.3835468 0 0 1 1.257246,-1.38354681 h 1.676328 a 1.2572454,1.3835468 0 0 1 1.257243,1.38354681 v 0.4611822 h 2.095412 a 1.2572454,1.3835468 0 0 1 1.181809,0.9223646 h 2.380384 a 1.0477046,1.1529557 0 0 1 1.047704,1.1529556 V 22.723531 a 1.0477046,1.1529557 0 0 1 -1.047704,1.152956 z M 4.5577778,4.5068305 A 0.21792257,0.23981478 0 0 0 4.348237,4.7374215 V 22.723531 a 0.21792257,0.23981478 0 0 0 0.2095408,0.230593 H 20.063804 a 0.21792257,0.23981478 0 0 0 0.209543,-0.230593 V 4.7374215 A 0.21792257,0.23981478 0 0 0 20.063804,4.5068305 H 17.758856 V 5.8903772 A 0.41908182,0.46118228 0 0 1 17.339772,6.3515594 H 7.2818095 A 0.41908182,0.46118228 0 0 1 6.862728,5.8903772 V 4.5068305 Z M 7.7008918,5.429195 H 16.920691 V 4.0456481 A 0.41908182,0.46118228 0 0 0 16.501611,3.5844659 H 13.987119 A 0.41908182,0.46118228 0 0 1 13.568037,3.1232835 V 2.2009191 A 0.41908182,0.46118228 0 0 0 13.148956,1.7397367 h -1.676328 a 0.41908182,0.46118228 0 0 0 -0.41908,0.4611824 V 3.1232835 A 0.41908182,0.46118228 0 0 1 10.634465,3.5844659 H 8.1199734 A 0.41908182,0.46118228 0 0 0 7.7008918,4.0456481 Z"
     fill="#0e1d25"
     style="stroke-width:0.879256" /><g
     inkscape:groupmode="layer"
     id="layer1"
     inkscape:label="Layer 1"><path
       style="fill:#0e1d25;fill-opacity:1;stroke:none;stroke-width:0.0619579;stroke-opacity:1"
       d="M 11.864302,21.328997 C 11.751646,21.252327 11.601148,21.110906 11.529861,21.014735 11.40376,20.844617 11.399776,20.76781 11.382846,18.180163 l -0.0174,-2.659716 H 8.8855014 c -1.619464,0 -2.575205,-0.02399 -2.754484,-0.06913 -0.357138,-0.08993 -0.679536,-0.436357 -0.740189,-0.795362 -0.06303,-0.373087 0.155239,-0.780656 0.521924,-0.974563 0.271444,-0.143543 0.272521,-0.143597 2.864033,-0.143597 H 11.36927 v -2.582669 c 0,-2.4855334 0.0048,-2.5926384 0.128312,-2.8477264 0.327131,-0.675762 1.224128,-0.722888 1.652766,-0.08683 0.139454,0.206935 0.139616,0.210253 0.139616,2.8622014 v 2.655026 h 2.589102 c 2.561927,0 2.591999,0.0015 2.865052,0.139405 0.397368,0.200744 0.573481,0.489736 0.541505,0.888577 -0.02921,0.364302 -0.208323,0.65565 -0.501783,0.816199 -0.176178,0.09639 -0.470146,0.109411 -2.845177,0.126062 l -2.648699,0.01857 v 2.638304 c 0,2.551786 -0.0042,2.645045 -0.127039,2.843857 -0.279112,0.451613 -0.885773,0.601209 -1.298622,0.320226 z"
       id="path3" /></g><metadata
     id="metadata3"><rdf:RDF><cc:Work
         rdf:about=""><dc:title>Clipboard</dc:title></cc:Work></rdf:RDF></metadata></svg>
